PathFileType	4	(X/Y/Z)	D:\luciana\demolition.trc
DataRate	CameraRate	NumFrames	NumMarkers	Units	OrigDataRate	OrigDataStartFrame	OrigNumFrames
250.00	250.00	11	18	mm	250.00	1048	1806
Frame#	Time	pelvisR			Trunk1			Trunk2			Trunk3			C7			shoulder			upperArm1			upperArm2			upperArm3			elbow			forearm1			forearm2			forearm3			wrist1			wrist2			wrist3			Object			Hand			
		X1	Y1	Z1	X2	Y2	Z2	X3	Y3	Z3	X4	Y4	Z4	X5	Y5	Z5	X6	Y6	Z6	X7	Y7	Z7	X8	Y8	Z8	X9	Y9	Z9	X10	Y10	Z10	X11	Y11	Z11	X12	Y12	Z12	X13	Y13	Z13	X14	Y14	Z14	X15	Y15	Z15	X16	Y16	Z16	X17	Y17	Z17	X18	Y18	Z18	

1047	4.188000	1705.009937	656.461716	692.377210	1475.222230	875.138402	620.207906	1538.899422	823.673785	612.301350	1452.672482	780.513048	619.827509	1548.750520	1136.020899	799.292684	1704.895973	1069.175482	715.979695	1719.538689	980.932176	592.423499	1793.300033	947.587371	601.577520	1781.144977	897.312403	658.304870	1748.192787	844.994009	520.427704	1775.056005	807.471037	444.589347	1706.892014	768.252015	471.350849	1749.444604	879.166961	440.778255	1734.764695	805.408716	302.283406	1666.851878	767.719150	316.507041	1720.224380	877.944529	317.288995	1660.098553	840.703368	197.784826	1672.881961	797.955871	211.585343	
1048	4.192000	1705.019236	656.473279	692.365408	1475.222588	875.128686	620.211542	1538.894176	823.659778	612.305820	1452.656507	780.499518	619.847715	1548.759222	1136.009216	799.311876	1704.849720	1069.177866	715.937853	1719.374418	981.027961	592.341125	1792.022705	947.239339	601.136446	1781.059861	897.385359	658.108115	1747.967482	845.174909	520.182014	1774.739265	807.715774	444.306225	1706.660628	768.384695	471.193582	1749.042749	879.364014	440.511435	1734.255910	805.528879	302.080572	1666.305304	767.705321	316.290319	1719.518065	878.058791	317.054391	1659.283757	840.634286	197.651714	1672.268987	797.924161	211.443767	
1049	4.196000	1705.031991	656.491578	692.377329	1475.201130	875.098228	620.214939	1538.885355	823.661447	612.309992	1452.626586	780.497074	619.851530	1548.769116	1135.995388	799.327672	1704.791069	1069.186687	715.901136	1719.211817	981.121063	592.245221	1792.603135	947.618783	601.136327	1780.967832	897.469997	657.906115	1747.744918	845.375299	519.966781	1774.420857	807.945907	444.010347	1706.419230	768.511295	471.030354	1748.646140	879.556537	440.251470	1733.720303	805.751860	301.722407	1665.750742	767.642975	316.044450	1718.860388	878.171444	316.850305	1658.442259	840.566993	197.519958	1671.536922	797.841787	211.313233	
1050	4.200000	1705.043077	656.484127	692.384005	1475.164175	875.076532	620.231092	1538.855314	823.671341	612.313807	1452.602983	780.495167	619.895101	1548.784256	1135.984063	799.335718	1704.725981	1069.183707	715.841174	1719.042301	981.213808	592.170537	1790.645599	947.023094	600.535214	1780.893564	897.558451	657.711983	1747.552872	845.572472	519.734144	1774.121523	808.174014	443.735093	1706.205487	768.625200	470.853895	1748.252988	879.746974	439.990491	1733.167529	806.093097	301.200926	1665.446758	767.534196	315.909356	1718.210697	878.276050	316.662073	1657.612562	840.503991	197.394252	1670.811892	797.774911	211.177841	
1051	4.204000	1705.047250	656.471014	692.376912	1475.141168	875.102520	620.233417	1538.841963	823.671639	612.330914	1452.592134	780.481219	619.897306	1548.788786	1135.975599	799.366355	1704.675198	1069.182038	715.793133	1718.868613	981.318295	592.101574	1791.046262	947.348356	600.480795	1780.835032	897.637725	657.536030	1747.338533	845.740616	519.488037	1773.810863	808.394194	443.460584	1706.004977	768.743873	470.690131	1747.835279	879.929781	439.733535	1732.637167	806.278586	300.905854	1665.012717	767.525017	315.791786	1717.557669	878.382683	316.479623	1656.782746	840.449274	197.284833	1670.255899	797.755897	211.059317	
1052	4.208000	1705.040574	656.456292	692.371666	1475.146770	875.102341	620.253503	1538.827181	823.668659	612.344444	1452.599406	780.489445	619.907975	1548.795462	1135.978699	799.393654	1704.633832	1069.178700	715.751052	1718.701363	981.407702	592.015266	1793.039441	948.296189	600.809216	1780.744314	897.718906	657.355130	1747.143865	845.901728	519.260883	1773.505211	808.615386	443.198770	1705.796003	768.863499	470.539063	1747.445583	880.114615	439.493418	1732.109666	806.421161	300.669253	1664.573908	767.523468	315.713704	1716.919065	878.492236	316.282421	1655.970335	840.382099	197.191477	1669.648767	797.722161	210.958824	
1053	4.212000	1705.047607	656.457543	692.366600	1475.144148	875.100315	620.271206	1538.811326	823.674321	612.357378	1452.588201	780.504107	619.952440	1548.806787	1135.983944	799.408734	1704.572439	1069.174886	715.707183	1718.530059	981.491327	591.916442	1793.437123	948.639631	600.743949	1780.645967	897.797227	657.176673	1746.935844	846.051574	519.036531	1773.207188	808.832347	442.947567	1705.567479	768.979609	470.396459	1747.086525	880.287766	439.257473	1731.593132	806.563973	300.457388	1664.071798	767.513275	315.612555	1716.267705	878.587842	316.074371	1655.182362	840.327382	197.084934	1668.942928	797.652125	210.852370	
1054	4.216000	1705.044866	656.464696	692.368865	1475.123882	875.102222	620.296657	1538.797855	823.672056	612.364888	1452.559471	780.493259	619.972706	1548.796892	1135.987282	799.429357	1704.527497	1069.174409	715.670466	1718.348980	981.565773	591.844618	1793.411016	948.825836	600.586295	1780.567646	897.880554	656.984806	1746.701956	846.206665	518.810272	1772.919059	809.034288	442.708135	1705.323577	769.084036	470.252872	1746.731281	880.454004	439.029694	1731.106520	806.709707	300.259471	1663.656950	767.475367	315.540135	1715.604663	878.680408	315.869063	1654.390335	840.272307	196.975514	1667.799473	797.370970	210.800111	
1055	4.220000	1705.044866	656.460583	692.377031	1475.109458	875.085711	620.305777	1538.781047	823.664188	612.380445	1452.548504	780.501127	619.972706	1548.807740	1135.979176	799.452484	1704.475880	1069.167137	715.627670	1718.165636	981.643736	591.779888	1792.287827	948.571801	600.179195	1780.496120	897.971511	656.780899	1746.468663	846.367359	518.598258	1772.624016	809.221268	442.485690	1705.078721	769.183695	470.125973	1747.127891	880.399346	438.882947	1730.614424	806.837738	300.072968	1663.222194	767.454922	315.507114	1714.948535	878.768504	315.674394	1653.591633	840.226352	196.864530	1666.622162	797.052860	210.749790	
1056	4.224000	1705.050230	656.451643	692.376852	1475.100875	875.080585	620.309114	1538.755417	823.654890	612.388372	1452.535629	780.492067	619.988501	1548.814654	1135.966063	799.471140	1704.413652	1069.159269	715.568483	1717.984080	981.733620	591.707706	1789.941549	947.808325	599.469900	1780.413866	898.064017	656.576693	1746.227741	846.529722	518.394828	1772.327662	809.400201	442.244709	1704.857230	769.281209	469.992071	1748.463035	880.057812	438.832998	1730.112672	806.964934	299.893975	1662.792563	767.448008	315.435827	1714.302063	878.857672	315.479100	1652.801752	840.181470	196.751371	1666.444182	797.165453	210.644916	
1057	4.228000	1705.058217	656.460166	692.377448	1475.056767	875.073552	620.348692	1538.726926	823.643446	612.381816	1452.499866	780.468106	620.016098	1548.812032	1135.954261	799.487472	1704.368234	1069.169283	715.514004	1717.811108	981.820285	591.620505	1790.204167	948.092461	599.395871	1780.332804	898.155212	656.367898	1746.023178	846.687675	518.190682	1772.037745	809.581101	442.016453	1704.634428	769.386709	469.853282	1747.774243	880.302131	438.569456	1729.609132	807.095408	299.713135	1662.384510	767.418325	315.395564	1713.658214	878.960013	315.301001	1652.001262	840.121865	196.643353	1664.952517	796.699524	210.590482	
